#!OML:ASF E:\Steps\Project 1\Capture day 1\Session 2\Subject.ASF
:FULLY-SPECIFIED
:DEGREES
425
root 3.42194 18.8188 8.04449 -154.501 4.54188 175.695
lowerback -26.0243 -2.53101 -5.0972
upperback -1.07039 -1.33011 -0.184465
thorax 13.5257 -0.73189 2.27763
lowerneck -2.50997 -1.85773 -2.98806
upperneck 11.838 -2.14998 2.2524
head 4.42157 -0.92069 1.20358
rclavicle 1.10077e-014 -1.94809e-014
rhumerus -41.465 -20.44 -75.9728
rradius 34.7273
rwrist -0.71839
rhand -9.48724 -412.21
rfingers 7.12502
rthumb 16.4774 -441.531
lclavicle 1.10077e-014 -1.94809e-014
lhumerus -37.5519 0.770665 82.1846
lradius 24.7561
lwrist -0.290997
lhand -21.5461 -12.8121
lfingers 7.12502
lthumb 4.84704 17.1125
rfemur -31.1634 12.2019 13.3554
rtibia 18.5557
rfoot -23.3361 -0.905591
rtoes -21.479
lfemur -27.2162 -4.32557 -28.8673
ltibia 17.2026
lfoot -13.6408 2.78232
ltoes -23.1951
426
root 3.41568 18.8168 8.01459 -154.446 4.54551 175.828
lowerback -26.3924 -2.57926 -4.93398
upperback -1.1076 -1.41415 -0.134966
thorax 13.6872 -0.757978 2.20579
lowerneck -2.64366 -1.75722 -3.11922
upperneck 11.3433 -2.05746 2.41154
head 4.27115 -0.889861 1.28108
rclavicle -8.19987e-016 1.39149e-015
rhumerus -41.0874 -20.5269 -75.9077
rradius 34.1858
rwrist -0.262007
rhand -9.23389 -412.289
rfingers 7.12502
rthumb 16.7213 -441.589
lclavicle -8.19987e-016 1.39149e-015
lhumerus -37.4491 1.2973 82.0934
lradius 24.4589
lwrist -0.473623
lhand -21.5511 -12.991
lfingers 7.12502
lthumb 4.84221 16.9336
rfemur -30.9141 12.0781 13.5338
rtibia 18.2407
rfoot -23.3718 -0.570066
rtoes -21.1963
lfemur -26.8936 -4.4754 -28.7337
ltibia 16.7019
lfoot -13.5586 3.04666
ltoes -23.3274
427
root 3.4158 18.8171 7.98868 -154.427 4.34025 175.893
lowerback -26.6416 -2.65741 -4.91969
upperback -1.20992 -1.49383 -0.0868691
thorax 13.7102 -0.784353 2.22244
lowerneck -2.68182 -1.79226 -3.04439
upperneck 11.2016 -2.11355 2.35873
head 4.22684 -0.921206 1.24589
rclavicle -3.47873e-015 1.68967e-015
rhumerus -41.0356 -20.7996 -75.7429
rradius 33.7833
rwrist -0.100893
rhand -9.44655 -412.571
rfingers 7.12502
rthumb 16.5165 -441.888
lclavicle -3.47873e-015 1.68967e-015
lhumerus -37.4886 1.33849 82.2138
lradius 24.3384
lwrist -0.340157
lhand -21.4458 -12.7608
lfingers 7.12502
lthumb 4.94391 17.1615
rfemur -30.5793 12.0266 13.6758
rtibia 17.8749
rfoot -23.3558 -0.572504
rtoes -20.8466
lfemur -26.6653 -4.56099 -28.6181
ltibia 16.4121
lfoot -13.4612 3.00572
ltoes -24.0103
428
root 3.41797 18.816 7.96216 -154.469 4.17701 175.901
lowerback -26.7925 -2.71285 -5.01764
upperback -1.37063 -1.50406 -0.0747943
thorax 13.6074 -0.778465 2.29131
lowerneck -2.63819 -1.9143 -2.83998
upperneck 11.1647 -2.27537 2.18669
head 4.20247 -1.0007 1.14358
rclavicle 1.47101e-014 -6.65929e-015
rhumerus -41.1652 -21.4738 -75.3466
rradius 33.1936
rwrist 0.0393232
rhand -10.1497 -412.786
rfingers 7.12502
rthumb 15.8395 -442.158
lclavicle 1.47101e-014 -6.65929e-015
lhumerus -37.6372 1.29768 82.3459
lradius 24.217
lwrist -0.336053
lhand -21.5417 -12.6553
lfingers 7.12502
lthumb 4.85129 17.2692
rfemur -30.1809 11.8079 13.8096
rtibia 17.484
rfoot -23.2845 -0.477583
rtoes -20.5471
lfemur -26.3945 -4.61102 -28.5669
ltibia 16.1964
lfoot -13.4135 2.83834
ltoes -23.694
429
root 3.4214 18.8137 7.93132 -154.442 4.14157 175.919
lowerback -27.132 -2.76774 -5.10947
upperback -1.54724 -1.4881 -0.100751
thorax 13.5847 -0.755433 2.32117
lowerneck -2.48615 -1.91342 -2.69606
upperneck 11.0111 -2.28755 2.16686
head 4.11411 -1.00379 1.11046
rclavicle -1.95057e-015 1.22253e-014
rhumerus -41.2777 -22.1216 -74.9549
rradius 32.4827
rwrist 0.403731
rhand -10.4721 -412.57
rfingers 7.12502
rthumb 15.529 -441.967
lclavicle -1.95057e-015 1.22253e-014
lhumerus -37.8749 1.26382 82.3829
lradius 24.1112
lwrist -0.416334
lhand -21.6469 -12.4059
lfingers 7.12502
lthumb 4.74973 17.5208
rfemur -29.9088 11.5213 13.932
rtibia 17.1169
rfoot -23.2195 -0.183113
rtoes -20.2687
lfemur -26.1417 -4.6228 -28.5304
ltibia 15.9076
lfoot -13.4106 2.77565
ltoes -23.3686
430
root 3.42755 18.8116 7.90129 -154.411 4.07565 175.993
lowerback -27.4568 -2.81872 -5.11432
upperback -1.49207 -1.5227 -0.130765
thorax 13.8284 -0.773741 2.27078
lowerneck -2.87137 -1.84283 -2.67347
upperneck 10.4077 -2.26003 2.42986
head 3.97788 -0.998526 1.19052
rclavicle 1.48095e-014 -1.63997e-015
rhumerus -40.7309 -22.6759 -74.9479
rradius 31.7554
rwrist 0.784189
rhand -10.6465 -412.768
rfingers 7.12502
rthumb 15.361 -442.177
lclavicle 1.48095e-014 -1.63997e-015
lhumerus -37.5202 1.37617 82.3149
lradius 23.8681
lwrist -0.546425
lhand -21.5338 -12.0855
lfingers 7.12502
lthumb 4.85893 17.8388
rfemur -29.6761 11.511 14.0659
rtibia 16.8355
rfoot -23.202 -0.185268
rtoes -20.4967
lfemur -25.8899 -4.65658 -28.4001
ltibia 15.6083
lfoot -13.4463 2.73679
ltoes -23.0382
431
root 3.43124 18.8092 7.87593 -154.465 3.96267 176.216
lowerback -27.4004 -2.87547 -5.11964
upperback -1.71503 -1.60328 0.0476283
thorax 13.5464 -0.79667 2.45507
lowerneck -2.70731 -1.90414 -2.91159
upperneck 10.1823 -2.36142 2.69687
head 3.87922 -1.05077 1.31751
rclavicle -5.8393e-016 -3.37934e-015
rhumerus -40.7349 -22.9708 -74.454
rradius 31.0981
rwrist 1.02106
rhand -10.7972 -413.481
rfingers 7.12502
rthumb 15.2158 -442.902
lclavicle -5.8393e-016 -3.37934e-015
lhumerus -37.7484 1.76971 82.388
lradius 23.6228
lwrist -1.04151
lhand -21.3811 -12.37
lfingers 7.12502
lthumb 5.00638 17.5508
rfemur -29.3614 11.657 14.3672
rtibia 16.6118
rfoot -23.1777 -0.260141
rtoes -20.8354
lfemur -25.5731 -4.73124 -28.0781
ltibia 15.3287
lfoot -13.5013 2.81482
ltoes -22.7843
